<svg xmlns="http://www.w3.org/2000/svg" viewBox="0 0 1200 300" role="img" aria-labelledby="title desc">
<title id="title">CLEANO</title>
<desc id="desc">CLEANO cleaning company logo</desc>
<defs>
  <linearGradient id="blue" x1="0" y1="0" x2="1" y2="1">
    <stop offset="0" stop-color="#1764ff"/>
    <stop offset="1" stop-color="#1452e8"/>
  </linearGradient>
</defs>
<g fill="url(#blue)">
  <path d="M270 72c-32-36-76-56-124-56C68 16 8 76 8 150s60 134 138 134c48 0 92-20 124-56l-55-48c-18 21-41 32-69 32-35 0-62-27-62-62s27-62 62-62c28 0 51 11 69 32z"/>
  <path d="M31 181c18 16 40 24 64 24 30 0 52-12 75-31 17-14 34-22 55-22 20 0 39 8 54 22-19 31-53 52-93 52-67 0-119-18-155-45z"/>
  <path d="M1067 34l10 27 27 10-27 10-10 27-10-27-27-10 27-10z"/>
</g>
<text x="300" y="211" font-family="Arial, Helvetica, sans-serif" font-size="190" font-weight="800" letter-spacing="1" fill="#20242a">LEANO</text>
</svg>